# xmcd
#
# Track frame offsets:
#	150
#	11001
#	23402
#	34411
#	43226
#	50800
#	64409
#	75983
#	87814
#	98626
#	110591
#	121703
#	133804
#	143305
#	153655
#	163940
#	174713
#	189250
#	219838
#	231166
#	244793
#	259441
#	272796
#	287329
#	307296
#	324135
#	335492
#
# Disc length: 4710 seconds
#
# Revision: 0
# Processed by: cddbd v1.5.2PL0 Copyright (c) Steve Scherf et al.
# Submitted via: dBpowerAMP V4.0
#
DISCID=7d12641b
DTITLE=Paul Anka - His All Time Greatest Hits
DYEAR=1900
DGENRE=Easy Listening
TTITLE0=Diana
TTITLE1=You Are My Destiny
TTITLE2=Crazy Love
TTITLE3=Let The Bells Keep Ringing
TTITLE4=The Teen Commandments
TTITLE5=(All Of A Sudden) My Heart Sings
TTITLE6=Lonely Boy
TTITLE7=Put Your Head On My Shoulder
TTITLE8=It's Time To Cry
TTITLE9=Puppy Love
TTITLE10=My Home Town
TTITLE11=Summer's Gone
TTITLE12=Tonight My Love, Tonight
TTITLE13=Dance On Little Girl
TTITLE14=Love Me Warm and Tender
TTITLE15=Eso Beso (That Kiss!)
TTITLE16=Goodnight My Love
TTITLE17=Jubilation
TTITLE18=(You're) Having My Baby
TTITLE19=One Man Woman/ One Woman Man
TTITLE20=I Don't Like To Sleep Alone
TTITLE21=(I Believe) There's Nothing Stronger
TTITLE22=Than Our Life
TTITLE23=Times Of Your Life
TTITLE24=My Way
TTITLE25=Unchained Melody
TTITLE26=Unforgetable
EXTD=
EXTT0=
EXTT1=
EXTT2=
EXTT3=
EXTT4=
EXTT5=
EXTT6=
EXTT7=
EXTT8=
EXTT9=
EXTT10=
EXTT11=
EXTT12=
EXTT13=
EXTT14=
EXTT15=
EXTT16=
EXTT17=
EXTT18=
EXTT19=
EXTT20=
EXTT21=
EXTT22=
EXTT23=
EXTT24=
EXTT25=
EXTT26=
PLAYORDER=
